<mxfile host="Electron" modified="2024-07-22T12:49:55.393Z" agent="Mozilla/5.0 (Macintosh; Intel Mac OS X 10_15_7) AppleWebKit/537.36 (KHTML, like Gecko) draw.io/24.6.4 Chrome/124.0.6367.207 Electron/30.0.6 Safari/537.36" etag="SLMxbMJMe3nvDPrQ1DO1" version="24.6.4" type="device">
  <diagram name="페이지-1" id="230ul_jkv67ZdB6Dl9jo">
    <mxGraphModel dx="802" dy="907" grid="1" gridSize="10" guides="1" tooltips="1" connect="1" arrows="1" fold="1" page="1" pageScale="1" pageWidth="827" pageHeight="1169" math="0" shadow="0">
      <root>
        <mxCell id="0" />
        <mxCell id="1" parent="0" />
        <mxCell id="w5yXUAQPGU6AtqAlup2d-16" value="" style="rounded=1;whiteSpace=wrap;html=1;dashed=1;fillColor=#d5e8d4;strokeColor=#82b366;" vertex="1" parent="1">
          <mxGeometry x="480" y="60" width="120" height="290" as="geometry" />
        </mxCell>
        <mxCell id="w5yXUAQPGU6AtqAlup2d-15" value="" style="rounded=1;whiteSpace=wrap;html=1;dashed=1;fillColor=#d5e8d4;strokeColor=#82b366;" vertex="1" parent="1">
          <mxGeometry x="60" y="60" width="400" height="90" as="geometry" />
        </mxCell>
        <mxCell id="w5yXUAQPGU6AtqAlup2d-2" value="이벤트&lt;div&gt;핸들러&lt;/div&gt;" style="rounded=0;whiteSpace=wrap;html=1;" vertex="1" parent="1">
          <mxGeometry x="498" y="280" width="80" height="50" as="geometry" />
        </mxCell>
        <mxCell id="w5yXUAQPGU6AtqAlup2d-13" style="edgeStyle=orthogonalEdgeStyle;rounded=0;orthogonalLoop=1;jettySize=auto;html=1;endArrow=block;endFill=1;" edge="1" parent="1" source="w5yXUAQPGU6AtqAlup2d-3" target="w5yXUAQPGU6AtqAlup2d-2">
          <mxGeometry relative="1" as="geometry" />
        </mxCell>
        <mxCell id="w5yXUAQPGU6AtqAlup2d-14" value="handle()" style="edgeLabel;html=1;align=center;verticalAlign=middle;resizable=0;points=[];fontSize=12;" vertex="1" connectable="0" parent="w5yXUAQPGU6AtqAlup2d-13">
          <mxGeometry x="-0.08" y="1" relative="1" as="geometry">
            <mxPoint as="offset" />
          </mxGeometry>
        </mxCell>
        <mxCell id="w5yXUAQPGU6AtqAlup2d-3" value="Message&lt;div&gt;Listener&lt;/div&gt;" style="rounded=0;whiteSpace=wrap;html=1;" vertex="1" parent="1">
          <mxGeometry x="498" y="180" width="80" height="50" as="geometry" />
        </mxCell>
        <mxCell id="w5yXUAQPGU6AtqAlup2d-11" style="edgeStyle=orthogonalEdgeStyle;rounded=0;orthogonalLoop=1;jettySize=auto;html=1;entryX=0.5;entryY=0;entryDx=0;entryDy=0;endArrow=block;endFill=1;" edge="1" parent="1" source="w5yXUAQPGU6AtqAlup2d-4" target="w5yXUAQPGU6AtqAlup2d-3">
          <mxGeometry relative="1" as="geometry" />
        </mxCell>
        <mxCell id="w5yXUAQPGU6AtqAlup2d-12" value="onMessage()" style="edgeLabel;html=1;align=center;verticalAlign=middle;resizable=0;points=[];fontSize=12;" vertex="1" connectable="0" parent="w5yXUAQPGU6AtqAlup2d-11">
          <mxGeometry x="-0.04" relative="1" as="geometry">
            <mxPoint as="offset" />
          </mxGeometry>
        </mxCell>
        <mxCell id="w5yXUAQPGU6AtqAlup2d-4" value="메시징&lt;div&gt;시스템&lt;/div&gt;" style="rounded=0;whiteSpace=wrap;html=1;" vertex="1" parent="1">
          <mxGeometry x="498" y="80" width="80" height="50" as="geometry" />
        </mxCell>
        <mxCell id="w5yXUAQPGU6AtqAlup2d-9" style="edgeStyle=orthogonalEdgeStyle;rounded=0;orthogonalLoop=1;jettySize=auto;html=1;endArrow=block;endFill=1;" edge="1" parent="1" source="w5yXUAQPGU6AtqAlup2d-5" target="w5yXUAQPGU6AtqAlup2d-4">
          <mxGeometry relative="1" as="geometry">
            <mxPoint x="470" y="105" as="targetPoint" />
          </mxGeometry>
        </mxCell>
        <mxCell id="w5yXUAQPGU6AtqAlup2d-10" value="메시징 전송" style="edgeLabel;html=1;align=center;verticalAlign=middle;resizable=0;points=[];fontSize=12;" vertex="1" connectable="0" parent="w5yXUAQPGU6AtqAlup2d-9">
          <mxGeometry x="-0.25" relative="1" as="geometry">
            <mxPoint x="15" y="-1" as="offset" />
          </mxGeometry>
        </mxCell>
        <mxCell id="w5yXUAQPGU6AtqAlup2d-5" value="Events" style="rounded=0;whiteSpace=wrap;html=1;" vertex="1" parent="1">
          <mxGeometry x="280" y="80" width="80" height="50" as="geometry" />
        </mxCell>
        <mxCell id="w5yXUAQPGU6AtqAlup2d-7" style="edgeStyle=orthogonalEdgeStyle;rounded=0;orthogonalLoop=1;jettySize=auto;html=1;endArrow=block;endFill=1;" edge="1" parent="1" source="w5yXUAQPGU6AtqAlup2d-6" target="w5yXUAQPGU6AtqAlup2d-5">
          <mxGeometry relative="1" as="geometry" />
        </mxCell>
        <mxCell id="w5yXUAQPGU6AtqAlup2d-8" value="Events.raise()" style="edgeLabel;html=1;align=center;verticalAlign=middle;resizable=0;points=[];fontSize=12;" vertex="1" connectable="0" parent="w5yXUAQPGU6AtqAlup2d-7">
          <mxGeometry x="-0.55" y="-1" relative="1" as="geometry">
            <mxPoint x="28" y="-3" as="offset" />
          </mxGeometry>
        </mxCell>
        <mxCell id="w5yXUAQPGU6AtqAlup2d-6" value="Order" style="rounded=0;whiteSpace=wrap;html=1;" vertex="1" parent="1">
          <mxGeometry x="80" y="80" width="80" height="50" as="geometry" />
        </mxCell>
        <mxCell id="w5yXUAQPGU6AtqAlup2d-18" value="트랜잭션 범위" style="text;html=1;align=center;verticalAlign=middle;whiteSpace=wrap;rounded=0;fillColor=#d5e8d4;strokeColor=#82b366;" vertex="1" parent="1">
          <mxGeometry x="60" y="160" width="70" height="20" as="geometry" />
        </mxCell>
        <mxCell id="w5yXUAQPGU6AtqAlup2d-19" value="트랜잭션 범위" style="text;html=1;align=center;verticalAlign=middle;whiteSpace=wrap;rounded=0;fillColor=#d5e8d4;strokeColor=#82b366;" vertex="1" parent="1">
          <mxGeometry x="400" y="330" width="70" height="20" as="geometry" />
        </mxCell>
      </root>
    </mxGraphModel>
  </diagram>
</mxfile>
